<svg width="147" height="101" viewBox="0 0 147 101" fill="none" xmlns="http://www.w3.org/2000/svg">
<path d="M146.128 50.0069C145.874 48.3954 144.323 47.1718 142.547 47.1718H53.0331C52.1527 47.1718 51.8394 46.4854 51.7648 46.2765C51.6901 46.0676 51.4962 45.3365 52.1826 44.7844L99.021 6.71974C100.409 5.60063 100.826 3.69069 100.021 2.27315C99.5134 1.37786 98.6778 0.781005 97.6781 0.601947C96.6932 0.42289 95.6935 0.676554 94.9176 1.30326L48.2582 39.2187C47.5718 39.7857 46.8854 39.4425 46.7064 39.3231C46.5124 39.2037 45.9155 38.7561 46.1095 37.8757L51.9289 12.7032C52.3318 10.9724 51.4962 9.19671 49.9891 8.58493C49.0341 8.19697 48.0195 8.22681 47.0794 8.7043C46.1991 9.16686 45.5724 9.98754 45.3336 10.9574L38.619 40.0244C38.4399 40.8003 37.7983 40.9943 37.5894 41.0391C37.3805 41.0839 36.7239 41.1734 36.2464 40.5467L26.5624 27.953C25.4732 26.5504 23.5781 26.0729 22.1457 26.8488C21.2355 27.3412 20.6237 28.1619 20.4148 29.1467C20.2059 30.1315 20.4297 31.1462 21.0415 31.9221L31.1135 45.0082C31.4268 45.426 31.4865 45.9482 31.2478 46.4257C31.0239 46.8883 30.5614 47.1718 30.0391 47.1718H3.62815C1.8525 47.1718 0.300668 48.3804 0.0470037 49.992C-0.117132 51.0066 0.151455 51.9914 0.807999 52.7673C1.44962 53.5283 2.40459 53.976 3.40433 53.976H26.3088C27.1891 53.976 27.5025 54.6624 27.5771 54.8713C27.6517 55.0802 27.8457 55.8113 27.1593 56.3634L12.1781 68.5393C10.8352 69.6286 10.4025 71.4938 11.1635 72.8815C11.641 73.7768 12.5064 74.4035 13.536 74.5974C14.5507 74.7914 15.5653 74.5527 16.3114 73.9409L31.0985 61.9291C31.7849 61.3621 32.4713 61.7202 32.6504 61.8247C32.8444 61.944 33.4412 62.4066 33.2472 63.2721L27.4279 88.4744C27.0548 90.1008 27.7711 91.787 29.1588 92.4733C30.0839 92.9359 31.1732 92.9359 32.143 92.4733C33.098 92.0257 33.7844 91.1901 34.0231 90.1903L40.7378 61.1383C40.9169 60.3624 41.5585 60.1684 41.7674 60.1236C41.9614 60.0789 42.6328 59.9893 43.1103 60.616L72.8338 99.2626C73.4158 100.024 74.326 100.486 75.3257 100.546C75.4003 100.546 75.4749 100.546 75.5346 100.546C76.4747 100.546 77.37 100.173 78.0116 99.5013C79.1456 98.3225 79.1755 96.3678 78.1011 94.9503L48.2433 56.1247C47.9299 55.7069 47.8703 55.1846 48.109 54.7071C48.3328 54.2446 48.7954 53.9611 49.3176 53.9611H142.771C143.77 53.9611 144.71 53.5283 145.367 52.7524C146.024 51.9765 146.292 50.9917 146.128 49.977V50.0069Z" fill="white"/>
</svg>
